<svg xmlns="http://www.w3.org/2000/svg" viewBox="-32.759 -30.276 165.517 165.517" data-kind="app-icon-512" data-ink="2 20 98 80" data-anchors="28" data-mode="light" data-ground="primary"><rect id="ground" x="-32.759" y="-30.276" width="165.517" height="165.517" fill="#4b3326"/><path id="bar" data-color="accent" data-parts="bar" fill="#ffffff" d="M27 55L27 45L73 45L73 55ZM2 45L16 45L16 55L2 55ZM84 55L84 45L98 45L98 55Z"/><path id="part-primary" data-color="primary" data-parts="l-stem l-top l-bot r-stem r-top r-bot" fill="#ffffff" d="M16 20L38 20L38 31L27 31L27 69L38 69L38 80L16 80ZM62 20L84 20L84 80L62 80L62 69L73 69L73 31L62 31Z"/></svg>