<svg xmlns="http://www.w3.org/2000/svg" viewBox="-354.047 -112.5 783.703 341.153" data-kind="one-color-dark" data-ink="-254.047 -12.5 329.656 128.653" data-anchors="129" data-mode="light"><path id="bar" data-color="accent" data-parts="bar" fill="#241913" d="M-201.964 60.417L-201.964 39.583L-106.13 39.583L-106.13 60.417ZM-254.047 39.583L-224.88 39.583L-224.88 60.417L-254.047 60.417ZM-83.214 60.417L-83.214 39.583L-54.047 39.583L-54.047 60.417Z"/><path id="part-primary" data-color="primary" data-parts="l-stem l-top l-bot r-stem r-top r-bot" fill="#241913" d="M-224.88 -12.5L-179.047 -12.5L-179.047 10.417L-201.964 10.417L-201.964 89.583L-179.047 89.583L-179.047 112.5L-224.88 112.5ZM-129.047 -12.5L-83.214 -12.5L-83.214 112.5L-129.047 112.5L-129.047 89.583L-106.13 89.583L-106.13 10.417L-129.047 10.417Z"/><path id="wordmark" data-color="text" data-parts="wordmark" fill="#241913" d="M236.676 100Q229.943 100 226.576 96.562Q223.209 93.123 222.493 87.536L221.777 87.536Q219.628 94.269 213.968 97.994Q208.309 101.719 199.57 101.719Q188.252 101.719 181.519 95.774Q174.785 89.828 174.785 79.37Q174.785 68.625 182.736 62.966Q190.688 57.307 207.163 57.307L221.347 57.307L221.347 51.576Q221.347 36.533 205.444 36.533Q198.281 36.533 193.84 39.327Q189.398 42.12 186.39 46.705L177.077 39.112Q180.229 33.095 187.679 28.725Q195.129 24.355 206.877 24.355Q220.917 24.355 228.94 31.089Q236.963 37.822 236.963 50.573L236.963 87.679L246.275 87.679L246.275 100ZM95.129 -6.017L110.745 -6.017L110.745 38.682L111.461 38.682Q112.607 35.817 114.398 33.166Q116.189 30.516 118.768 28.582Q121.347 26.648 124.785 25.501Q128.223 24.355 132.808 24.355Q143.983 24.355 150.86 31.662Q157.736 38.968 157.736 52.436L157.736 100L142.12 100L142.12 54.728Q142.12 37.106 126.791 37.106Q123.782 37.106 120.917 37.894Q118.052 38.682 115.759 40.258Q113.467 41.834 112.106 44.269Q110.745 46.705 110.745 49.857L110.745 100L95.129 100ZM313.897 26.074L329.656 26.074L293.84 114.327Q290.974 121.49 286.318 125.072Q281.662 128.653 272.923 128.653L260.458 128.653L260.458 116.046L277.937 116.046L284.671 98.997L254.871 26.074L271.203 26.074L282.951 57.02L292.12 82.378L292.98 82.378L302.149 57.02ZM43.123 101.719Q31.089 101.719 22.421 97.851Q13.754 93.983 8.453 87.536L18.052 78.94Q22.923 84.241 29.011 87.034Q35.1 89.828 43.41 89.828Q51.003 89.828 55.659 87.249Q60.315 84.67 60.315 79.226Q60.315 76.934 59.456 75.358Q58.596 73.782 57.02 72.779Q55.444 71.777 53.367 71.203Q51.289 70.63 48.997 70.344L37.249 68.481Q32.951 67.908 28.51 66.619Q24.069 65.33 20.559 62.966Q17.049 60.602 14.828 56.877Q12.607 53.152 12.607 47.421Q12.607 36.103 21.275 30.229Q29.943 24.355 44.126 24.355Q54.441 24.355 61.963 27.436Q69.484 30.516 74.499 35.96L65.759 45.129Q62.894 41.834 57.593 39.04Q52.292 36.246 43.553 36.246Q27.937 36.246 27.937 46.132Q27.937 50.86 31.304 52.65Q34.67 54.441 39.255 55.014L51.003 56.877Q55.444 57.593 59.814 58.739Q64.183 59.885 67.693 62.249Q71.203 64.613 73.424 68.338Q75.645 72.063 75.645 77.794Q75.645 88.968 66.977 95.344Q58.309 101.719 43.123 101.719ZM204.011 90.258Q211.605 90.258 216.476 86.819Q221.347 83.381 221.347 77.937L221.347 67.192L207.45 67.192Q190.544 67.192 190.544 77.364L190.544 80.229Q190.544 85.244 194.126 87.751Q197.708 90.258 204.011 90.258Z"/></svg>