<svg xmlns="http://www.w3.org/2000/svg" viewBox="-217.167 -112.5 607.881 342.786" data-kind="full-color-dark" data-ink="-117.167 -12.5 290.714 130.286" data-anchors="119" data-mode="dark"><path id="part-accent" data-color="accent" data-parts="blaze-upper blaze-lower" fill="#d2a03a" d="M-114.191 55.952L-81.453 55.952C-79.808 55.952 -78.476 57.284 -78.476 58.929L-78.476 109.524C-78.476 111.168 -79.808 112.5 -81.453 112.5L-114.191 112.5C-115.835 112.5 -117.167 111.168 -117.167 109.524L-117.167 58.929C-117.167 57.284 -115.835 55.952 -114.191 55.952ZM-93.357 -12.5L-60.619 -12.5C-58.975 -12.5 -57.643 -11.168 -57.643 -9.524L-57.643 41.071C-57.643 42.716 -58.975 44.048 -60.619 44.048L-93.357 44.048C-95.002 44.048 -96.333 42.716 -96.333 41.071L-96.333 -9.524C-96.333 -11.168 -95.002 -12.5 -93.357 -12.5Z"/><path id="wordmark" data-color="text" data-parts="wordmark" fill="#f5f2f1" d="M173.429 101.714Q160.571 101.714 153.5 96Q146.429 90.286 146.429 79.857Q146.429 68.714 153.929 62.857Q161.429 57 174.857 57L193 57Q192.143 49.143 188.571 45Q185 40.857 178 40.857Q172.857 40.857 169 43Q165.143 45.143 162.429 49.714L148.429 44.571Q150.714 39.857 154.5 35.786Q158.286 31.714 164.071 29.286Q169.857 26.857 178 26.857Q188.429 26.857 195.429 30.929Q202.429 35 205.786 42.571Q209.143 50.143 209.143 60.857L208.714 100L194 100L193.571 91.286Q190.714 96.286 185.643 99Q180.571 101.714 173.429 101.714ZM72.714 100L72.714 0L88.714 0L88.714 38.286Q92.286 32.714 97.714 29.786Q103.143 26.857 110 26.857Q118.429 26.857 124.571 30.286Q130.714 33.714 133.929 40.929Q137.143 48.143 137.143 59.714L137.143 100L121.143 100L121.143 63.429Q121.143 54.857 119.143 50.214Q117.143 45.571 113.643 43.714Q110.143 41.857 105.571 41.857Q97.429 41.714 93.071 47.143Q88.714 52.571 88.714 62.714L88.714 100ZM232.143 130.286Q228.714 130.286 224.5 129Q220.286 127.714 216.429 125.714L222.429 112.714Q225.143 114 227.429 114.786Q229.714 115.571 231.143 115.571Q234.571 115.571 236.929 113.786Q239.286 112 240.714 108.571L244.571 99.429L212.857 28.571L230.286 28.571L252 81.143L273.286 28.571L290.714 28.571L257.571 107.571Q254.571 114.429 251.5 119.571Q248.429 124.714 243.857 127.5Q239.286 130.286 232.143 130.286ZM34.857 101.714Q27.714 101.714 21.714 99.571Q15.714 97.429 11.429 93.5Q7.143 89.571 4.857 84.286L18.714 78.143Q20.857 82.143 25.071 84.857Q29.286 87.571 34.429 87.571Q40 87.571 43.357 85.643Q46.714 83.714 46.714 80.286Q46.714 77 44.143 75.214Q41.571 73.429 36.857 72.286L30.143 70.429Q20 67.857 14.286 62.214Q8.571 56.571 8.571 49.286Q8.571 38.571 15.5 32.714Q22.429 26.857 35.429 26.857Q42 26.857 47.5 28.786Q53 30.714 57 34.214Q61 37.714 62.571 42.429L49.286 48.429Q47.857 44.857 43.857 42.929Q39.857 41 35 41Q30.143 41 27.429 43.071Q24.714 45.143 24.714 48.857Q24.714 51 27.143 52.786Q29.571 54.571 34.143 55.714L42.571 57.714Q49.571 59.429 54 63.071Q58.429 66.714 60.571 71.214Q62.714 75.714 62.714 80.286Q62.714 86.714 59.071 91.571Q55.429 96.429 49.143 99.071Q42.857 101.714 34.857 101.714ZM175.429 88.286Q180.714 88.286 184.786 85.929Q188.857 83.571 191.071 79.571Q193.286 75.571 193.286 70.714L193.286 69.286L180 69.286Q170.429 69.286 166.571 71.929Q162.714 74.571 162.714 79.429Q162.714 83.571 166.071 85.929Q169.429 88.286 175.429 88.286Z"/></svg>