<svg xmlns="http://www.w3.org/2000/svg" viewBox="10.114 9.893 80.713 80.713" data-kind="small-32-one-color-light" data-ink="22.089 15.342 78.979 85.158" data-anchors="46" data-mode="dark" data-ground="background"><rect id="ground" x="10.114" y="9.893" width="80.713" height="80.713" fill="#17120f"/><path id="initial-s" data-color="text" data-parts="initial-s" fill="#f5f2f1" d="M78.979 61.596L63.86 61.596Q63.201 59.705 61.581 58.261Q58.9 55.871 53.097 54.914L46.162 53.727Q42.682 53.106 38.823 52.079Q34.999 51.061 31.606 49.119Q28.256 47.2 26.153 43.878Q24.06 40.571 24.06 35.438Q24.06 28.889 27.537 24.436Q31.03 19.962 37.02 17.658Q43.044 15.342 50.594 15.342Q57.958 15.342 63.796 17.534Q69.612 19.719 73.453 23.898Q77.157 27.929 78.369 33.746L64.302 36.583Q63.822 33.756 62.509 31.398Q61.076 28.826 58.254 27.301Q55.446 25.784 50.906 25.784Q45.604 25.784 42.131 27.938Q38.565 30.15 38.565 34.25Q38.565 36.97 40.204 38.743Q41.799 40.469 44.701 41.566Q47.545 42.639 51.391 43.396L58.898 44.835L58.903 44.836Q64.162 45.701 68.8 47.836Q73.394 49.949 76.239 53.742Q78.57 56.85 78.979 61.596ZM50.969 85.158Q43.538 85.158 37.134 82.9Q30.761 80.653 26.487 75.948Q23.613 72.785 22.089 68.404L37.099 68.404Q38.115 70.006 39.556 71.187Q43.637 74.529 50.406 74.529Q57.114 74.529 60.696 71.561Q62.43 70.122 63.334 68.404L78.589 68.404Q77.756 72.295 75.458 75.352Q71.84 80.166 65.508 82.655Q59.142 85.158 50.969 85.158ZM34.863 61.543Q34.866 61.57 34.869 61.596L34.59 61.596L34.863 61.543Z"/></svg>